<?xml version="1.0" encoding="utf-8"?>
<!-- Generator: Adobe Illustrator 16.0.0, SVG Export Plug-In . SVG Version: 6.00 Build 0)  -->
<!DOCTYPE svg PUBLIC "-//W3C//DTD SVG 1.1//EN" "http://www.w3.org/Graphics/SVG/1.1/DTD/svg11.dtd">
<svg version="1.1" id="Calque_1" xmlns="http://www.w3.org/2000/svg" xmlns:xlink="http://www.w3.org/1999/xlink" x="0px" y="0px"
	 width="680.31px" height="680.31px" viewBox="0 0 680.31 680.31" enable-background="new 0 0 680.31 680.31" xml:space="preserve">
<rect x="-0.5" y="0.5" fill="#0A0015" stroke="#000000" stroke-miterlimit="10" width="681" height="680"/>
<path fill="#0A0015" stroke="#000000" stroke-miterlimit="10" d="M578.5,174.5c0,6.627-5.373,12-12,12h-467c-6.627,0-12-5.373-12-12
	v-54c0-6.627,5.373-12,12-12h467c6.627,0,12,5.373,12,12V174.5z"/>
<path fill="#E9FFF5" stroke="#000000" stroke-miterlimit="10" d="M594.5,153.5c0,6.627-5.373,12-12,12h-486c-6.627,0-12-5.373-12-12
	v-47c0-6.627,5.373-12,12-12h486c6.627,0,12,5.373,12,12V153.5z"/>
<path fill="#E9FFF5" stroke="#000000" stroke-miterlimit="10" d="M594.5,531.5c0,6.627-5.373,12-12,12h-486c-6.627,0-12-5.373-12-12
	v-47c0-6.627,5.373-12,12-12h486c6.627,0,12,5.373,12,12V531.5z"/>
<path fill="#E9FFF5" stroke="#000000" stroke-miterlimit="10" d="M594.5,340.5c0,6.627-5.373,12-12,12h-486c-6.627,0-12-5.373-12-12
	v-47c0-6.627,5.373-12,12-12h486c6.627,0,12,5.373,12,12V340.5z"/>
</svg>
